HIERARCHY
ROOT pelvis
{
  OFFSET 0 100 0
  CHANNELS 6 Xposition Yposition Zposition Zrotation Xrotation Yrotation
  JOINT pelvis_right_femur
  {
    OFFSET -10.78128 -3.44521 -0.5502486
    CHANNELS 3 Zrotation Xrotation Yrotation
    JOINT right_femur_tibia
    {
      OFFSET -0.8047443 -44.0398 -0.1307829
      CHANNELS 3 Zrotation Xrotation Yrotation
      JOINT right_tibia_foot
      {
        OFFSET 3.006224 -47.83518 -5
        CHANNELS 3 Zrotation Xrotation Yrotation
        End Site
        {
          OFFSET 0 -5 15
        }
      }
    }
  }
  JOINT pelvis_left_femur
  {
    OFFSET 10.78128 -3.44521 -0.5502486
    CHANNELS 3 Zrotation Xrotation Yrotation
    JOINT left_femur_tibia
    {
      OFFSET 0.8047443 -44.0398 -0.1307829
      CHANNELS 3 Zrotation Xrotation Yrotation
      JOINT left_tibia_foot
      {
        OFFSET -4.370144 -48.10324 -4.275266
        CHANNELS 3 Zrotation Xrotation Yrotation
        End Site
        {
          OFFSET 0 -5 15
        }
      }
    }
  }
  JOINT pelvis_spine1
  {
    OFFSET 0 6.468898 -3.129235
    CHANNELS 3 Zrotation Xrotation Yrotation
    JOINT spine1
    {
      OFFSET 0 23.15396 4.99043
      CHANNELS 3 Zrotation Xrotation Yrotation
      JOINT spine2
      {
        OFFSET 0 20.79997 -5.064912
        CHANNELS 3 Zrotation Xrotation Yrotation
        JOINT neck
        {
          OFFSET 0 14.38658 9.616178
          CHANNELS 3 Zrotation Xrotation Yrotation
          End Site
          {
            OFFSET 0 20 0
          }
        }
      }
      JOINT right_manubrium
      {
        OFFSET -5.722621 16.35077 3.967754
        CHANNELS 3 Zrotation Xrotation Yrotation
        JOINT right_clavicle
        {
          OFFSET -13.16364 1.694482 -4.693211
          CHANNELS 3 Zrotation Xrotation Yrotation
          JOINT right_humerus
          {
            OFFSET -28.5034 -0.3100689 -2.792744
            CHANNELS 3 Zrotation Xrotation Yrotation
            JOINT right_radius
            {
              OFFSET -25.15693 0.02248979 -1.271978
              CHANNELS 3 Zrotation Xrotation Yrotation
              End Site
              {
                OFFSET -15 0 0
              }
            }
          }
        }
      }
      JOINT left_manubrium
      {
        OFFSET 5.722621 16.35077 3.967754
        CHANNELS 3 Zrotation Xrotation Yrotation
        JOINT left_clavicle
        {
          OFFSET 13.16364 1.694482 -4.693211
          CHANNELS 3 Zrotation Xrotation Yrotation
          JOINT left_humerus
          {
            OFFSET 29.39168 -1.063119 -2.237045
            CHANNELS 3 Zrotation Xrotation Yrotation
            JOINT left_radius
            {
              OFFSET 24.59957 -0.9528479 0.9047498
              CHANNELS 3 Zrotation Xrotation Yrotation
              End Site
              {
                OFFSET 15 -0 -0
              }
            }
          }
        }
      }
    }
  }
}
MOTION
Frames: 13
Frame Time: 0.0416666666667
0 103.5113 0 1.445499 -3.420289 0.168 2.490339 -14.4408 7.589001 -0 40.06101 -0 -5.576778 -15.32549 -4.589637 -6.844034 13.86082 -24.05237 -0 5.453169 -0 -0.3095863 -19.88039 23.02714 -3.901121 -2.341573 3.345506 1.885431 8.47716 -7.392908 0.7444564 23.82436 7.551225 3.863752 -21.96762 8.228919 6.315029 -19.13494 11.23178 87.36138 35.22067 -21.98621 -0 0 14.89375 -7.500357 7.123219 4.672946 3.746787 -18.76793 -4.745099 -99.08246 42.26094 27.13947 0 0 -22.4814 -10.67736 14.68938 27.14328
0.1320042 103.3753 1.229926 1.164815 -3.100478 0.2397916 3.132699 -16.1463 7.993559 -0 40.46879 -0 -5.77074 -14.82551 -4.38568 -6.67691 13.82357 -24.42617 -0 5.649468 -0 -0.3827358 -20.0732 23.12359 -3.586964 -2.046279 3.451145 1.710227 8.444093 -7.269668 0.9029809 23.60304 7.623954 4.156874 -22.15663 8.31926 6.422373 -19.16908 11.1078 87.1848 35.49638 -21.89945 -0 0 15.29191 -6.81589 6.862583 4.184488 4.05384 -18.86507 -4.678815 -99.41191 42.43767 27.44954 0 0 -22.87473 -10.104 14.7037 26.91919
0.270686 103.0772 2.726901 0.8218452 -1.987504 0.3445935 3.526903 -19.22882 7.220342 -0 36.62534 -0 -5.96658 -13.46823 -4.201195 -6.382799 13.95382 -23.90409 -0 5.145818 -0 -0.7779285 -21.82778 22.15557 -3.47712 -1.877858 3.369498 1.917049 8.046853 -7.509873 0.9667171 23.07357 7.79931 4.373344 -22.77225 8.458686 6.44086 -18.74988 11.03373 86.72093 35.67777 -21.68245 -0 0 15.24255 -7.530946 7.649489 4.446358 4.908726 -19.36437 -3.82855 -98.05828 40.50541 25.81761 0 0 -22.55644 -8.822149 15.76647 25.03916
0.4035987 102.6208 4.481314 0.5403793 -1.261001 0.5155026 3.800536 -21.83624 6.47345 -0 33.48379 -0 -6.152355 -11.99479 -4.105393 -6.120235 14.15155 -23.27452 -0 4.990865 -0 -1.529477 -23.1999 21.07602 -3.318507 -1.559622 3.248539 2.017645 7.752639 -7.660134 1.013369 22.73733 7.97435 4.592905 -23.13074 8.516447 6.356761 -18.40342 10.96815 86.64888 35.75063 -21.74827 -0 0 14.94343 -8.169601 8.202099 4.692799 5.414427 -19.77318 -3.502191 -97.21381 39.7561 24.78442 0 0 -23.01722 -8.536787 16.12229 24.6479
0.5258367 102.0512 6.537294 0.1499486 -0.4194962 0.7476337 4.290153 -24.90931 5.899337 -0 30.47063 -0 -6.418668 -10.31332 -3.928641 -5.785527 14.36298 -22.6621 -0 5.203345 -0 -2.373035 -24.38826 19.89964 -3.0233 -1.152743 3.130248 2.07677 7.456697 -7.782163 1.100476 22.34459 8.14847 4.868264 -23.55233 8.593723 6.275335 -18.05273 10.86572 86.61609 35.88023 -21.84422 -0 0 14.68434 -8.550657 8.612264 4.806618 5.928751 -20.1618 -3.205331 -96.46938 39.0545 23.88033 0 0 -23.59957 -8.019365 16.3411 24.1714
0.6314518 101.3976 8.94008 -0.2855138 0.4211475 1.049854 4.848715 -27.94353 5.401346 -0 27.60942 -0 -6.741476 -8.569683 -3.721823 -5.411747 14.60157 -21.979 -0 5.835903 -0 -3.348883 -25.25879 18.5687 -2.645843 -0.7176903 2.972992 2.124338 7.160736 -7.89234 1.189941 21.98805 8.290175 5.112911 -23.96191 8.65887 6.150496 -17.69157 10.75044 86.71449 35.98311 -22.011 -0 0 14.35044 -8.806803 8.898431 4.896783 6.314965 -20.46939 -3.009268 -95.83178 38.51043 23.13671 0 0 -24.22852 -7.551307 16.37676 23.87045
0.7180072 100.706 11.75525 -0.7826989 1.313532 1.423422 5.504927 -30.83804 4.99855 -0 24.85165 -0 -7.119349 -6.834597 -3.465019 -4.98821 14.85146 -21.194 -0 7.032704 -0 -4.39682 -25.68697 17.06654 -2.180213 -0.3070643 2.76593 2.193338 6.860305 -8.016729 1.26856 21.65027 8.382938 5.288211 -24.40075 8.718042 5.99289 -17.30165 10.63266 86.91398 36.06294 -22.21605 -0 0 13.9484 -8.954325 9.097543 4.994161 6.568601 -20.67289 -2.845337 -95.22745 37.88166 22.48403 0 0 -24.69486 -6.925871 16.30004 23.44654
0.7860816 100.0344 15.05966 -1.336573 2.240314 1.86215 6.248584 -33.31288 4.69282 -0 22.25324 -0 -7.527441 -5.220799 -3.162703 -4.518073 15.09527 -20.26513 -0 8.99493 -0 -5.478022 -25.47774 15.38495 -1.628103 0.02508015 2.496282 2.309573 6.568718 -8.171551 1.313494 21.34519 8.40847 5.343553 -24.86894 8.763286 5.809632 -16.87234 10.53331 87.21802 36.10667 -22.45194 -0 0 13.45613 -9.039208 9.253521 5.146856 6.634964 -20.7344 -2.704594 -94.63245 37.05448 21.91019 0 0 -24.84353 -6.084206 16.11806 22.78362
0.8410928 99.46185 18.9343 -1.940542 3.163759 2.345026 7.076018 -35.008 4.498823 -0 19.94326 -0 -7.915889 -3.878843 -2.826405 -4.009303 15.29143 -19.16089 -0 12.01207 -0 -6.540282 -24.38108 13.54374 -0.9877034 0.2208382 2.16545 2.496276 6.318163 -8.367642 1.297737 21.07823 8.355066 5.233929 -25.36507 8.783759 5.631071 -16.39693 10.4844 87.60522 36.11176 -22.70315 -0 0 12.86847 -9.115675 9.441565 5.399331 6.463535 -20.62219 -2.578701 -94.03099 35.90837 21.40611 0 0 -24.51871 -4.952519 15.8264 21.74354
0.894092 99.08852 23.44067 -2.565185 3.980832 2.824666 7.945218 -35.43773 4.403977 -0 18.13145 -0 -8.197471 -3.002456 -2.494016 -3.487086 15.33901 -17.86788 -0 16.44069 -0 -7.547876 -22.13998 11.59816 -0.2666669 0.2356948 1.80393 2.761045 6.165044 -8.595063 1.192999 20.85982 8.225474 4.933949 -25.85699 8.758726 5.512405 -15.87911 10.53217 88.02086 36.07907 -22.94148 -0 0 12.1981 -9.285771 9.787295 5.795735 6.01485 -20.3259 -2.481217 -93.43107 34.40145 20.97426 0 0 -23.62931 -3.552018 15.40635 20.29857
0.9604294 99.02479 28.57802 -3.141075 4.504337 3.215486 8.743881 -34.0888 4.332216 -0 17.03766 -0 -8.259169 -2.786408 -2.234517 -3.001645 15.0067 -16.41036 -0 22.62569 -0 -8.515875 -18.63281 9.651093 0.504765 0.07917338 1.501505 3.073887 6.184625 -8.80057 0.9860242 20.70477 8.05022 4.476349 -26.26238 8.657246 5.531975 -15.3419 10.72964 88.34565 36.01457 -23.10139 -0 0 11.49751 -9.723687 10.4662 6.365446 5.31071 -19.8933 -2.44499 -92.86406 32.62793 20.61578 0 0 -22.2423 -2.05977 14.85845 18.62007
1.053569 99.35678 34.22815 -3.539752 4.475467 3.397511 9.270395 -30.66641 4.125684 -0 16.71417 -0 -8.026223 -3.324129 -2.130657 -2.628844 13.84555 -14.86583 -0 30.68515 -0 -9.533191 -14.12661 7.870487 1.250021 -0.127569 1.435064 3.337908 6.438538 -8.862681 0.7085093 20.64296 7.88993 3.993977 -26.4283 8.44303 5.751037 -14.84322 11.10762 88.39401 35.92333 -23.05484 -0 0 10.87031 -10.66142 11.6227 7.102103 4.490878 -19.46341 -2.513742 -92.38152 30.87968 20.33219 0 0 -20.70077 -0.8558815 14.25127 17.17672
1.176313 100.0893 40.13558 -3.584286 3.680589 3.266658 9.283833 -25.42727 3.626032 -0 16.82248 -0 -7.570122 -4.485035 -2.212133 -2.44533 11.2034 -13.35356 -0 40.16318 -0 -10.67441 -9.477793 6.512149 1.818265 -0.1492347 1.844992 3.391341 6.914896 -8.611614 0.4565212 20.73111 7.804333 3.703288 -26.16118 8.093275 6.128745 -14.49366 11.62615 87.9991 35.81563 -22.62648 -0 0 10.44503 -12.2532 13.17534 7.946024 3.80854 -19.23936 -2.70332 -92.03127 29.56262 20.15824 0 0 -19.61249 -0.381073 13.7112 16.60596
